#!OML:ASF E:\motion texture\Top Level 1\Subject 1\Session 1\male.ASF
:FULLY-SPECIFIED
:DEGREES
113
root 16.7793 17.8444 4.65102 116.858 -77.0231 -116.862
lowerback 1.39923 4.5184 11.1437
upperback -2.21756 6.29113 2.73599
thorax -2.22625 2.89398 -3.49503
lowerneck -17.9342 -7.13735 -8.61504
upperneck 15.2502 -9.44543 9.53002
head 8.58159 -4.0736 3.37814
rclavicle -2.77429e-014 -1.80894e-014
rhumerus 3.79726 31.7769 -85.5375
rradius 71.3656
rwrist -13.7123
rhand -9.10782 -25.2111
rfingers 7.12502
rthumb 16.8427 -54.5007
lclavicle -2.77429e-014 -1.80894e-014
lhumerus -58.2573 2.21314 66.1232
lradius 31.9949
lwrist -18.1449
lhand -1.1816 5.24566
lfingers 7.12502
lthumb 24.4581 33.7042
rfemur 9.20051 5.42706 37.754
rtibia 24.1573
rfoot -371.827 -2.23132
rtoes -3.05458
lfemur -70.5375 14.9536 -9.6659
ltibia 73.2966
lfoot 389.364 -3.40613
ltoes 8.91057
114
root 16.6057 17.821 4.66322 118.276 -77.0052 -117.873
lowerback 0.951961 4.5908 11.0679
upperback -2.38094 6.33143 2.68377
thorax -2.14201 2.91342 -3.47574
lowerneck -17.8387 -7.10034 -8.62293
upperneck 15.2716 -9.40414 9.53576
head 8.56864 -4.05727 3.38966
rclavicle -2.82895e-014 -6.75868e-015
rhumerus 2.44955 31.9194 -86.0497
rradius 71.1746
rwrist -13.3137
rhand -9.23141 -24.956
rfingers 7.12502
rthumb 16.7237 -54.2557
lclavicle -2.82895e-014 -6.75868e-015
lhumerus -58.3909 2.02545 67.0748
lradius 32.8273
lwrist -17.6422
lhand -1.30854 5.04707
lfingers 7.12502
lthumb 24.3364 33.522
rfemur 9.5539 5.56224 37.5103
rtibia 23.8488
rfoot -371.875 -2.02257
rtoes -3.45827
lfemur -68.5069 15.0672 -9.55012
ltibia 71.1466
lfoot 389.69 -3.95331
ltoes 8.93441
115
root 16.4272 17.7971 4.67657 119.654 -76.9688 -118.846
lowerback 0.493052 4.66491 11.0201
upperback -2.56309 6.37388 2.63259
thorax -2.06813 2.93167 -3.46973
lowerneck -17.7291 -7.06232 -8.63049
upperneck 15.3248 -9.3657 9.53931
head 8.56407 -4.04269 3.40034
rclavicle 7.57867e-016 -7.55382e-015
rhumerus 0.988328 32.0389 -86.609
rradius 70.9366
rwrist -12.831
rhand -9.41064 -24.6228
rfingers 7.12502
rthumb 16.5511 -53.937
lclavicle 7.57867e-016 -7.55382e-015
lhumerus -58.5521 1.79616 68.06
lradius 33.7348
lwrist -17.1372
lhand -1.45423 4.85349
lfingers 7.12502
lthumb 24.1968 33.3471
rfemur 9.90759 5.67513 37.2621
rtibia 23.5568
rfoot -371.88 -1.77768
rtoes -3.85983
lfemur -66.3535 15.1291 -9.39874
ltibia 68.9185
lfoot 389.825 -4.39823
ltoes 8.80456
116
root 16.244 17.7728 4.69108 120.949 -76.9221 -119.743
lowerback 0.0249003 4.73773 10.997
upperback -2.75685 6.4139 2.58245
thorax -1.99939 2.94702 -3.47517
lowerneck -17.6107 -7.02562 -8.64042
upperneck 15.4037 -9.33302 9.54715
head 8.56751 -4.03069 3.41227
rclavicle 2.14563e-014 6.77856e-014
rhumerus -0.573933 32.1206 -87.2086
rradius 70.6434
rwrist -12.2818
rhand -9.61845 -24.2706
rfingers 7.12502
rthumb 16.351 -53.6013
lclavicle 2.14563e-014 6.77856e-014
lhumerus -58.7303 1.52936 69.0788
lradius 34.7204
lwrist -16.6323
lhand -1.61562 4.71795
lfingers 7.12502
lthumb 24.042 33.2321
rfemur 10.2579 5.76198 37.0067
rtibia 23.3004
rfoot -371.827 -1.49732
rtoes -4.26577
lfemur -64.0724 15.1125 -9.20992
ltibia 66.6305
lfoot 389.712 -4.7416
ltoes 8.27251
117
root 16.0557 17.7481 4.70703 122.139 -76.8627 -120.558
lowerback -0.449418 4.80558 10.9986
upperback -2.95196 6.44581 2.5393
thorax -1.92822 2.95739 -3.48589
lowerneck -17.4955 -6.99027 -8.64
upperneck 15.5106 -9.30494 9.54222
head 8.58015 -4.02118 3.41752
rclavicle 3.06501e-014 6.57977e-014
rhumerus -2.23056 32.1626 -87.8426
rradius 70.289
rwrist -11.647
rhand -9.85823 -23.8816
rfingers 7.12502
rthumb 16.1202 -53.2312
lclavicle 3.06501e-014 6.57977e-014
lhumerus -58.9122 1.2818 70.0935
lradius 35.761
lwrist -16.1687
lhand -1.79556 4.63012
lfingers 7.12502
lthumb 23.8695 33.1669
rfemur 10.5993 5.81793 36.7431
rtibia 23.1154
rfoot -371.699 -1.16378
rtoes -4.63509
lfemur -61.6457 14.9992 -8.9674
ltibia 64.3001
lfoot 389.352 -4.95161
ltoes 7.32414
118
root 15.8619 17.7232 4.72447 123.233 -76.7947 -121.313
lowerback -0.92167 4.86907 11.0222
upperback -3.14225 6.47094 2.50261
thorax -1.85285 2.96384 -3.50145
lowerneck -17.3791 -6.95521 -8.64327
upperneck 15.6335 -9.27934 9.54234
head 8.59865 -4.01256 3.42479
rclavicle 2.91344e-014 3.3197e-014
rhumerus -3.97434 32.1505 -88.5064
rradius 69.8642
rwrist -10.9561
rhand -10.0874 -23.4525
rfingers 7.12502
rthumb 15.8995 -52.8198
lclavicle 2.91344e-014 3.3197e-014
lhumerus -59.0886 1.0546 71.1076
lradius 36.8465
lwrist -15.7156
lhand -2.01479 4.68055
lfingers 7.12502
lthumb 23.6592 33.2447
rfemur 10.9247 5.83776 36.4604
rtibia 23.0375
rfoot -371.481 -0.769177
rtoes -4.97972
lfemur -59.0558 14.7707 -8.67179
ltibia 61.928
lfoot 388.83 -5.0919
ltoes 5.98413
119
root 15.6618 17.6983 4.74337 124.28 -76.7191 -122.073
lowerback -1.38491 4.93054 11.0573
upperback -3.3257 6.49313 2.47266
thorax -1.77562 2.96856 -3.51656
lowerneck -17.2496 -6.91615 -8.64708
upperneck 15.7605 -9.25028 9.54454
head 8.61597 -4.00267 3.43368
rclavicle 1.29459e-014 -1.55052e-014
rhumerus -5.81765 32.0701 -89.2027
rradius 69.3675
rwrist -10.2359
rhand -10.2932 -22.9802
rfingers 7.12502
rthumb 15.7013 -52.3632
lclavicle 1.29459e-014 -1.55052e-014
lhumerus -59.2576 0.867171 72.1059
lradius 37.9597
lwrist -15.2793
lhand -2.24482 4.80388
lfingers 7.12502
lthumb 23.4386 33.3963
rfemur 11.2233 5.81014 36.1368
rtibia 23.1084
rfoot -371.145 -0.287864
rtoes -5.33116
lfemur -56.28 14.4135 -8.32215
ltibia 59.5142
lfoot 388.166 -5.19176
ltoes 4.25983
120
root 15.4548 17.6732 4.76404 125.313 -76.6366 -122.873
lowerback -1.84401 4.98917 11.1005
upperback -3.50036 6.51033 2.45005
thorax -1.69248 2.97088 -3.52825
lowerneck -17.0974 -6.8743 -8.65751
upperneck 15.9011 -9.22064 9.55263
head 8.63438 -3.99314 3.4463
rclavicle -1.07592e-014 -8.54774e-015
rhumerus -7.75811 31.9217 -89.9296
rradius 68.8008
rwrist -9.51668
rhand -10.3718 -22.5213
rfingers 7.12502
rthumb 15.6256 -51.9103
lclavicle -1.07592e-014 -8.54774e-015
lhumerus -59.4194 0.741799 73.0796
lradius 39.082
lwrist -14.8357
lhand -2.49524 4.93301
lfingers 7.12502
lthumb 23.1983 33.5559
rfemur 11.4657 5.728 35.7535
rtibia 23.3862
rfoot -370.673 0.294368
rtoes -5.6942
lfemur -53.3101 13.9146 -7.93337
ltibia 57.0623
lfoot 387.12 -5.30766
ltoes 1.66435
121
root 15.2411 17.6481 4.78678 126.347 -76.552 -123.73
lowerback -2.29916 5.04317 11.1487
upperback -3.66892 6.52031 2.43242
thorax -1.60651 2.96954 -3.53779
lowerneck -16.9216 -6.82788 -8.67672
upperneck 16.0618 -9.18865 9.56846
head 8.65594 -3.98313 3.46395
rclavicle 5.31749e-014 4.79071e-014
rhumerus -9.80225 31.693 -90.6867
rradius 68.1655
rwrist -8.80725
rhand -10.3447 -22.038
rfingers 7.12502
rthumb 15.6517 -51.4248
lclavicle 5.31749e-014 4.79071e-014
lhumerus -59.5684 0.696332 74.0218
lradius 40.1928
lwrist -14.3553
lhand -2.77454 5.11962
lfingers 7.12502
lthumb 22.9303 33.776
rfemur 11.6068 5.56942 35.2839
rtibia 23.9345
rfoot -370.027 0.99545
rtoes -6.06962
lfemur -50.1694 13.2804 -7.55558
ltibia 54.6209
lfoot 385.32 -5.72221
ltoes -0.98683
122
root 15.0214 17.623 4.81153 127.416 -76.4713 -124.672
lowerback -2.74831 5.09023 11.1856
upperback -3.83394 6.52076 2.4207
thorax -1.52362 2.96342 -3.53591
lowerneck -16.7259 -6.77693 -8.70272
upperneck 16.2529 -9.1548 9.58729
head 8.6844 -3.97307 3.4846
rclavicle 1.06847e-015 -4.47266e-014
rhumerus -11.9434 31.3803 -91.4597
rradius 67.471
rwrist -8.14098
rhand -10.1775 -21.5803
rfingers 7.12502
rthumb 15.8128 -50.9544
lclavicle 1.06847e-015 -4.47266e-014
lhumerus -59.7048 0.736885 74.9439
lradius 41.2861
lwrist -13.798
lhand -3.0911 5.39422
lfingers 7.12502
lthumb 22.6265 34.088
rfemur 11.5942 5.3277 34.7055
rtibia 24.8283
rfoot -369.156 1.81475
rtoes -6.41589
lfemur -46.9216 12.5647 -7.2683
ltibia 52.262
lfoot 382.483 -6.46099
ltoes -3.39587
